<svg id="Capa_1" enable-background="new 0 0 512 512" height="512" viewBox="0 0 512 512" width="512" xmlns="http://www.w3.org/2000/svg">
  <g>
    <path d="m480.098 383.299-166.952-289.179c-.411.783-39.826 69.112-39.826 69.112l127.043 220.052h79.137c.201 0 .398.013.598.015z" fill="#ffffff" />
    <path d="m477.477 413.284h-442.954c-19.067 0-34.523 15.456-34.523 34.523 0 19.066 15.456 34.523 34.523 34.523h442.955c19.066 0 34.523-15.456 34.523-34.523-.001-19.067-15.457-34.523-34.524-34.523z" fill="#ffffff" />
    <path d="m32.5 383.284h79.137l174.255-301.829c9.533-16.512 3.875-37.626-12.637-47.159-16.219-9.446-37.571-4.028-47.159 12.637l-194.194 336.366c.2-.002.397-.015.598-.015z" fill="#ffffff" />
  </g>
</svg>